<svg width="66" height="66" viewBox="0 0 66 66" fill="none" xmlns="http://www.w3.org/2000/svg">
    <circle cx="33" cy="33" r="33" fill="#EAF6EF"/>
    <path fill-rule="evenodd" clip-rule="evenodd" d="M40.7856 23.5785L40.9108 23.581C42.5446 23.6459 43.8563 24.9546 43.9392 26.5748L43.9433 26.7379L43.9432 36.0883L43.9392 36.1559C43.9029 36.468 43.6379 36.7056 43.3212 36.7056C43.0063 36.7056 42.746 36.4716 42.7048 36.1679L42.6991 36.0835L42.7187 34.5993L38.5157 29.5848L32.1054 37.737L34.4284 40.7393L34.4693 40.7999C34.5753 40.9797 34.5843 41.2015 34.4919 41.3898C34.4004 41.5762 34.2231 41.7029 34.0212 41.7316L33.9333 41.7378L25.897 41.7378L25.7718 41.7353C24.138 41.6705 22.8263 40.3618 22.7434 38.7415L22.7393 38.5785L22.7393 26.7362L22.7418 26.611C22.8066 24.9773 24.1153 23.6656 25.7356 23.5827L25.8986 23.5785L40.7856 23.5785ZM40.1498 35.6728C40.4648 35.6728 40.725 35.9068 40.7662 36.2105L40.7719 36.2949L40.7711 38.8441L43.3262 38.8445L43.3938 38.8486C43.7059 38.8848 43.9435 39.1498 43.9435 39.4665C43.9435 39.7815 43.7095 40.0417 43.4058 40.0829L43.3214 40.0886L40.7711 40.0879L40.7718 42.6429L40.7677 42.7105C40.7315 43.0225 40.4664 43.2602 40.1498 43.2602C39.8348 43.2602 39.5746 43.0262 39.5334 42.7225L39.5277 42.6381L39.5273 40.0879L36.9734 40.0884L36.9058 40.0844C36.5937 40.0482 36.3561 39.7831 36.3561 39.4665C36.3561 39.1515 36.5901 38.8912 36.8938 38.8501L36.9782 38.8444L39.5273 38.8441L39.5278 36.2901L39.5319 36.2224C39.5681 35.9104 39.8332 35.6728 40.1498 35.6728ZM25.9007 24.8227L40.7838 24.8227L40.9156 24.8272L41.045 24.8405C41.9424 24.9636 42.6478 25.7115 42.6963 26.6362L42.699 26.7401L42.6982 32.6385L38.9771 28.1989L38.9121 28.1322C38.7966 28.0301 38.6466 27.9738 38.4904 27.9766C38.3305 27.9791 38.1781 28.043 38.0644 28.1547L38.0146 28.21L31.3211 36.723L28.9277 33.6307L28.8637 33.5599C28.7489 33.4511 28.5959 33.3893 28.435 33.3893C28.2704 33.3895 28.1129 33.4549 27.9968 33.5705L27.9462 33.6278L26.0814 36.0517L26.0307 36.1287C25.883 36.3936 25.9475 36.7337 26.1951 36.9241C26.4444 37.116 26.7967 37.0909 27.0161 36.8692L27.0642 36.8144L28.4367 35.0288L32.6647 40.493L25.8985 40.4937L25.7667 40.4892C24.8085 40.4236 24.0368 39.6489 23.986 38.6801L23.9833 38.5763L23.9833 26.7379L23.9878 26.6061C24.0533 25.6479 24.8281 24.8762 25.7969 24.8254L25.9007 24.8227ZM28.436 26.6232C29.7116 26.6232 30.7496 27.6612 30.7496 28.9368C30.7496 30.2124 29.7116 31.2504 28.436 31.2504C27.1604 31.2504 26.1224 30.2124 26.1224 28.9368C26.1224 27.6612 27.1604 26.6232 28.436 26.6232ZM27.3664 28.9368C27.3664 28.347 27.846 27.8674 28.4358 27.8674C29.0257 27.8674 29.5052 28.347 29.5052 28.9368C29.5052 29.5267 29.0257 30.0062 28.4358 30.0062C27.846 30.0062 27.3664 29.5267 27.3664 28.9368Z" fill="#16A34A"/>
</svg>
