<?xml version="1.0" encoding="UTF-8"?>
<svg width="689px" height="689px" viewBox="0 0 689 689" version="1.1" xmlns="http://www.w3.org/2000/svg" xmlns:xlink="http://www.w3.org/1999/xlink">
    <title>6130cfa7-e976-4417-8cc5-949b3b4fd246</title>
    <g id="Page-1" stroke="none" stroke-width="1" fill="none" fill-rule="evenodd">
        <g id="6130cfa7-e976-4417-8cc5-949b3b4fd246" transform="translate(0.6306, 0.48)" fill="#16A34A" fill-rule="nonzero">
            <g id="g8" transform="translate(344.038, 344.04) scale(-1, 1) rotate(-180) translate(-344.038, -344.04)translate(0, 0)">
                <g id="Group" transform="translate(-0, 0)">
                    <path d="M688.075983,561.426653 L688.075983,121.399997 C688.075983,54.453332 633.622651,0 566.675986,0 L121.395997,0 C54.4546653,0 0,54.453332 0,121.399997 L0,566.679986 C0,633.599984 54.4546653,688.079983 121.395997,688.079983 L566.675986,688.079983 C570.102652,688.079983 573.489319,687.933316 576.849319,687.639983 L308.862659,366.586658 L246.86266,428.586656 C231.169328,444.293322 210.285328,452.933322 188.087995,452.933322 C165.873329,452.933322 144.98933,444.293322 129.29333,428.586656 C113.59733,412.893323 104.950664,392.013324 104.950664,369.813324 C104.934664,347.599991 113.59733,326.719992 129.29333,311.013326 L255.609327,184.679995 C271.329327,168.986662 292.195993,160.346663 314.409325,160.346663 C315.622659,160.346663 316.862659,160.373329 318.129325,160.426663 C341.409325,161.466663 363.302658,172.333329 378.222657,190.199995 L688.075983,561.426653" id="path32"></path>
                    <path d="M314.395992,210.226661 C305.595992,210.226661 297.142659,213.719995 290.889326,219.959995 L164.563996,346.293325 C151.57733,359.279991 151.578663,380.333324 164.566663,393.31999 C177.551996,406.306657 198.606662,406.306657 211.595995,393.31999 L312.182659,292.719993 L626.089318,668.799983 C637.862651,682.893316 658.835984,684.78665 672.929317,673.013317 C687.035983,661.253317 688.915983,640.279984 677.155983,626.173318 L339.929325,222.173328 C333.942658,214.999995 325.222659,210.679995 315.902659,210.253328 C315.395992,210.239995 314.902659,210.226661 314.395992,210.226661" id="path34"></path>
                </g>
            </g>
        </g>
    </g>
</svg>